<svg width="128" height="128" viewBox="0 0 128 128" xmlns="http://www.w3.org/2000/svg" role="img" aria-label="Xiaole Logo">
  <defs>
    <linearGradient id="g" x1="0" y1="0" x2="1" y2="1">
      <stop offset="0%" stop-color="#10b981"/>
      <stop offset="100%" stop-color="#22c55e"/>
    </linearGradient>
  </defs>
  <rect width="128" height="128" rx="28" fill="url(#g)"/>
  <!-- Headset outline -->
  <rect x="24" y="24" width="80" height="80" rx="24" fill="#fff"/>
  <rect x="32" y="32" width="64" height="64" rx="20" fill="#0b1320"/>
  <!-- Brain -->
  <path d="M48 54c4-10 28-10 32 0 6 2 10 8 10 14s-6 14-14 14c-3 0-6-1-8-3-2 2-5 3-8 3-8 0-14-8-14-14 0-6 4-12 10-14z" fill="#fff" opacity="0.9"/>
  <path d="M64 50v36" stroke="#fff" stroke-width="4" stroke-linecap="round" opacity="0.95"/>
  <!-- Face -->
  <circle cx="52" cy="80" r="5" fill="#fff"/>
  <circle cx="76" cy="80" r="5" fill="#fff"/>
  <path d="M54 94c6 6 14 6 20 0" stroke="#fff" stroke-width="4" stroke-linecap="round" fill="none"/>
  <!-- Ears -->
  <rect x="18" y="56" width="10" height="28" rx="5" fill="#fff"/>
  <rect x="100" y="56" width="10" height="28" rx="5" fill="#fff"/>
</svg>
